# xmcd
# 
# Track frame offsets:
#     150
#     11625
#     28112
#     41287
#     58537
#     71575
#     85400
#     99437
#     111262
#     130387
#     145037
#     156025
#     168037
#     186912
#     199325
#     212512
# 
# Disc length: 3093
# 
# Revision: 5
# Processed by: cddbd v1.5.2PL0 Copyright (c) Steve Scherf et al.
# Submitted via: BonkEnc v1.0rc1
# 
DISCID=d80c1310
DTITLE=Various Artist - On The Road Again
DYEAR=1994
DGENRE=Country
TTITLE0=Willi Nelson - On The Road Again
TTITLE1=Johnny Cash - A Boy Named Sue
TTITLE2=Tanya Tucker - Delta Dawn
TTITLE3=Ricky Skaggs - Country Boy
TTITLE4=Lynn Anderson - Rose Garden
TTITLE5=Barbara Fairchild - Teddy Bear Song
TTITLE6=Merle Haggard feat. Janie Fricke - Naturel High
TTITLE7=Johnny Cash - Ring Of Fire
TTITLE8=The Charlie Daniels Band - The Legend Of Wooley Swamp
TTITLE9=Rodney Crowell - She's Crazy For Leaving
TTITLE10=Janie Fricke - Don't Worry Bout Me Baby
TTITLE11=Tammy Wynette - Stand By Your Man
TTITLE12=Exile - I Can't Get Close Enough
TTITLE13=Charlie Rich - A Very Special Love Song
TTITLE14=David Houston - Almost Presuaded
TTITLE15=Willie Nelson - Georgia On My Mind
EXTD=
EXTT0=
EXTT1=
EXTT2=
EXTT3=
EXTT4=
EXTT5=
EXTT6=
EXTT7=
EXTT8=
EXTT9=
EXTT10=
EXTT11=
EXTT12=
EXTT13=
EXTT14=
EXTT15=
PLAYORDER=
